<svg width="599" height="151" viewBox="0 0 599 151" fill="none" xmlns="http://www.w3.org/2000/svg">
<path d="M49.224 29.272C46.1093 27.9493 43.016 27.288 39.944 27.288C33.7147 27.288 30.6 29.592 30.6 34.2C30.6 36.2053 31.304 38.0827 32.712 39.832C34.12 41.5387 35.8267 43.0747 37.832 44.44C39.8373 45.7627 41.8427 47.128 43.848 48.536C45.8533 49.944 47.56 51.6293 48.968 53.592C50.376 55.5547 51.08 57.688 51.08 59.992C51.08 63.8747 49.7787 66.8187 47.176 68.824C44.5733 70.7867 40.968 71.768 36.36 71.768C31.7947 71.768 27.8907 70.5947 24.648 68.248L26.184 65.944C29.256 67.9493 32.6267 68.952 36.296 68.952C39.9653 68.952 42.7813 68.2267 44.744 66.776C46.7067 65.2827 47.688 63.1493 47.688 60.376C47.688 58.456 46.984 56.6427 45.576 54.936C44.168 53.1867 42.4613 51.6293 40.456 50.264C38.4507 48.856 36.4453 47.4267 34.44 45.976C32.4347 44.5253 30.728 42.7973 29.32 40.792C27.912 38.7867 27.208 36.632 27.208 34.328C27.208 31.2987 28.3173 28.9093 30.536 27.16C32.7973 25.368 35.8267 24.472 39.624 24.472C43.464 24.472 47.0267 25.24 50.312 26.776L49.224 29.272ZM68.096 64.92C63.872 60.3547 61.76 54.744 61.76 48.088C61.76 41.432 63.872 35.8427 68.096 31.32C72.3627 26.7547 77.7387 24.472 84.224 24.472C90.7093 24.472 96.0853 26.7547 100.352 31.32C104.619 35.8427 106.752 41.432 106.752 48.088C106.752 54.744 104.619 60.3547 100.352 64.92C96.0853 69.4853 90.7093 71.768 84.224 71.768C77.7387 71.768 72.3627 69.4853 68.096 64.92ZM70.4 33.304C66.8587 37.272 65.088 42.2 65.088 48.088C65.088 53.976 66.8587 58.9253 70.4 62.936C73.984 66.9467 78.592 68.952 84.224 68.952C89.8987 68.952 94.5067 66.9467 98.048 62.936C101.632 58.9253 103.424 53.976 103.424 48.088C103.424 42.2 101.632 37.272 98.048 33.304C94.5067 29.2933 89.8987 27.288 84.224 27.288C78.5493 27.288 73.9413 29.2933 70.4 33.304ZM120.948 71V25.24H144.308V27.928H124.02V44.76H142.58V47.384H124.02V71H120.948ZM156.323 71V25.24H159.395V71H156.323ZM178.693 55.128L172.101 71H168.837L188.101 24.92H189.893L209.221 71H205.765L199.173 55.128H178.693ZM188.805 30.04C188.762 30.0827 188.677 30.3387 188.549 30.808C187.951 32.6427 187.375 34.2 186.821 35.48L179.781 52.504H198.085L191.045 35.544C189.551 32.3013 188.805 30.4667 188.805 30.04ZM253.601 59.928L266.849 26.136H268.705L280.289 60.184C281.185 62.872 281.782 64.8133 282.081 66.008C282.422 64.6 283.019 62.68 283.873 60.248L295.649 25.24H298.849L282.913 71.384H281.121L269.281 37.464C269.11 36.9093 268.918 36.3547 268.705 35.8C268.534 35.2453 268.385 34.7547 268.257 34.328C268.129 33.9013 268.001 33.5387 267.873 33.24L267.617 32.472C267.574 32.2587 267.553 32.1307 267.553 32.088C267.041 33.624 266.379 35.3947 265.569 37.4L252.193 71.384H250.401L234.337 25.24H237.729L249.441 59.672C249.995 61.208 250.443 62.5947 250.785 63.832C251.169 65.0693 251.382 65.752 251.425 65.88C251.638 64.8987 252.363 62.9147 253.601 59.928ZM308.323 71V25.24H311.395V71H308.323ZM342.917 68.76C348.933 68.76 353.754 67.1387 357.381 63.896C361.05 60.6107 362.885 55.6827 362.885 49.112C362.885 42.5413 360.815 37.3147 356.677 33.432C352.581 29.5493 347.503 27.608 341.445 27.608C337.562 27.608 334.191 27.7147 331.333 27.928V68.248C334.106 68.5893 337.967 68.76 342.917 68.76ZM341.445 24.792C348.485 24.792 354.373 26.9893 359.109 31.384C363.845 35.736 366.213 41.6667 366.213 49.176C366.213 52.9733 365.594 56.344 364.357 59.288C363.162 62.1893 361.498 64.5147 359.365 66.264C354.97 69.8053 349.487 71.576 342.917 71.576C338.607 71.576 333.722 71.3413 328.26 70.872V25.24C332.613 24.9413 337.007 24.792 341.445 24.792ZM414.944 71V48.088H383.52V71H380.448V25.24H383.52V45.336H414.944V25.24H418.016V71H414.944ZM438.534 64.92C434.31 60.3547 432.198 54.744 432.198 48.088C432.198 41.432 434.31 35.8427 438.534 31.32C442.8 26.7547 448.176 24.472 454.662 24.472C461.147 24.472 466.523 26.7547 470.79 31.32C475.056 35.8427 477.19 41.432 477.19 48.088C477.19 54.744 475.056 60.3547 470.79 64.92C466.523 69.4853 461.147 71.768 454.662 71.768C448.176 71.768 442.8 69.4853 438.534 64.92ZM440.838 33.304C437.296 37.272 435.526 42.2 435.526 48.088C435.526 53.976 437.296 58.9253 440.838 62.936C444.422 66.9467 449.03 68.952 454.662 68.952C460.336 68.952 464.944 66.9467 468.486 62.936C472.07 58.9253 473.862 53.976 473.862 48.088C473.862 42.2 472.07 37.272 468.486 33.304C464.944 29.2933 460.336 27.288 454.662 27.288C448.987 27.288 444.379 29.2933 440.838 33.304ZM491.385 71V25.24H494.458V68.184H515.514V71H491.385ZM547.018 68.632H545.29L531.914 36.248C531.146 34.456 530.527 32.8773 530.058 31.512L529.418 36.376L524.17 71H521.034L528.586 24.856H530.378L544.65 58.776C545.375 60.3547 545.951 61.848 546.378 63.256C546.506 62.7867 547.167 61.3147 548.362 58.84L564.298 24.856H566.026L573.002 71H569.802L564.81 36.248C564.468 34.072 564.298 32.4293 564.298 31.32C564.255 31.3627 564.148 31.576 563.978 31.96C563.85 32.3013 563.594 32.8987 563.21 33.752C562.868 34.5627 562.506 35.416 562.122 36.312L547.018 68.632Z" fill="white"/>
<path d="M187.56 125.224H186.264L176.232 100.936C175.656 99.592 175.192 98.408 174.84 97.384L174.36 101.032L170.424 127H168.072L173.736 92.392H175.08L185.784 117.832C186.328 119.016 186.76 120.136 187.08 121.192C187.176 120.84 187.672 119.736 188.568 117.88L200.52 92.392H201.816L207.048 127H204.648L200.904 100.936C200.648 99.304 200.52 98.072 200.52 97.24C200.488 97.272 200.408 97.432 200.28 97.72C200.184 97.976 199.992 98.424 199.704 99.064C199.448 99.672 199.176 100.312 198.888 100.984L187.56 125.224ZM229.677 127.48C225.229 127.48 221.501 125.928 218.493 122.824C215.485 119.72 213.981 115.928 213.981 111.448C213.981 106.936 215.485 103.128 218.493 100.024C221.501 96.92 225.229 95.368 229.677 95.368C234.125 95.368 237.853 96.92 240.861 100.024C243.869 103.128 245.373 106.936 245.373 111.448C245.373 115.928 243.869 119.72 240.861 122.824C237.853 125.928 234.125 127.48 229.677 127.48ZM229.677 97.336C225.837 97.336 222.637 98.696 220.077 101.416C217.549 104.136 216.285 107.48 216.285 111.448C216.285 115.384 217.549 118.712 220.077 121.432C222.637 124.12 225.837 125.464 229.677 125.464C233.549 125.464 236.749 124.12 239.277 121.432C241.805 118.712 243.069 115.384 243.069 111.448C243.069 107.48 241.805 104.136 239.277 101.416C236.749 98.696 233.549 97.336 229.677 97.336ZM271.794 125.224H270.498L260.466 100.936C259.89 99.592 259.426 98.408 259.074 97.384L258.594 101.032L254.658 127H252.306L257.97 92.392H259.314L270.018 117.832C270.562 119.016 270.994 120.136 271.314 121.192C271.41 120.84 271.906 119.736 272.802 117.88L284.754 92.392H286.05L291.282 127H288.882L285.138 100.936C284.882 99.304 284.754 98.072 284.754 97.24C284.722 97.272 284.642 97.432 284.514 97.72C284.418 97.976 284.226 98.424 283.938 99.064C283.682 99.672 283.41 100.312 283.122 100.984L271.794 125.224ZM300.711 127V92.68H316.647V94.696H303.015V107.32H315.351V109.288H303.015V124.984H317.175V127H300.711ZM328.607 98.152L328.703 102.232V127H326.398V92.392H327.455L350.062 118.456C351.599 120.28 352.783 121.736 353.615 122.824C353.487 121.288 353.423 119.528 353.423 117.544V92.68H355.727V127.288H354.671L331.631 100.744C330.031 98.92 329.007 97.704 328.559 97.096L328.607 98.152ZM374.734 94.696H363.119V92.68H388.655V94.696H377.039V127H374.734V94.696ZM424.68 127V115.96H408.648V114.184L425.352 92.392H426.984V113.848H432.456V115.96H426.984V127H424.68ZM424.68 113.848V96.424L411.24 113.848H424.68Z" fill="white"/>
</svg>
